<svg xmlns="http://www.w3.org/2000/svg" viewBox="0 0 562.61 477.19"><defs><style>.cls-1{fill:#272525;}.cls-2{fill:#cd3137;}</style></defs><title>Recurso 5</title><g id="Capa_2" data-name="Capa 2"><g id="Diseños"><path class="cls-1" d="M503.33,114.13V254.65H474.44L452,162.83v91.82h-21.5V114.17h26.58l24.76,100.77V114.13Z"/><path class="cls-1" d="M67,135.48V114.13h60.54v21.35ZM67,195V173.63h51.51V195Zm0,59.6V233.23h60.54v21.41Z"/><path class="cls-1" d="M203,233.16v21.49H142.43V114.13h21.5v119Z"/><path class="cls-2" d="M207.27,135.48V114.13h60.54v21.35Zm0,59.56V173.63h51.51V195Zm0,59.6V233.23h60.54v21.41Z"/><path class="cls-1" d="M346.78,114.13l-3.11,23.37-12.13,93.23-3.19,23.92H294.89L276.52,114.13h21.72L311.66,216.9l13.41-102.77Z"/><path class="cls-1" d="M355,135.48V114.13h60.55v21.35ZM355,195V173.63h51.52V195Zm0,59.6V233.23h60.55v21.41Z"/><path class="cls-2" d="M285.14,368.79c-73.51,0-142.74-18.81-194.92-53C37,281,7.67,234.3,7.67,184.39S37,87.81,90.22,53C142.4,18.81,211.63,0,285.14,0S427.88,18.81,480.06,53c53.23,34.84,82.55,81.52,82.55,131.42S533.29,281,480.06,315.82C427.88,350,358.66,368.79,285.14,368.79Zm0-352.79C141,16,23.67,91.54,23.67,184.39S141,352.79,285.14,352.79s261.47-75.54,261.47-168.4S429.31,16,285.14,16Z"/><path class="cls-2" d="M486.67,366.44a8,8,0,0,1-8-7.42c-1.1-15.2,5.51-42.15,9.84-57.79-7.42,1-17.45,2.24-28,3.2-39.86,3.61-51.13-.12-56.14-3.23a8,8,0,1,1,8.45-13.59c1.19.74,9,4.25,46.25.89,20.39-1.85,39.18-4.85,39.37-4.88l12.77-2.06-3.86,12.35c-3.92,12.49-13.83,48.33-12.69,63.95a8,8,0,0,1-7.4,8.56Z"/><path class="cls-1" d="M36.86,419.68q0,2-8.33,19.44T20.2,458.76H14.69q0-2.88-7.35-20.13T0,419.68H8q0,2,5.35,15.68T18.68,451h.37q0-1.89,5.08-15.1t5.08-16.25Z"/><path class="cls-1" d="M51.55,458.76H44.1q.57-8.22.58-18.8A116.16,116.16,0,0,0,43.24,420l8.22-1.11Q51,427.5,51,440,51,449.83,51.55,458.76Zm1.72-51.42A5.35,5.35,0,0,1,51.92,411a4.83,4.83,0,0,1-3.83,1.54,4.12,4.12,0,0,1-3.27-1.33A4.74,4.74,0,0,1,43.65,408a5.08,5.08,0,0,1,1.4-3.58,5,5,0,0,1,3.86-1.52,4,4,0,0,1,3.19,1.33A4.62,4.62,0,0,1,53.27,407.34Z"/><path class="cls-1" d="M93.34,458.76l-6.46.25a16,16,0,0,1-.49-3.83H86q-5.07,4.62-13.78,4.61A12.47,12.47,0,0,1,64.05,457a9.6,9.6,0,0,1-3.41-7.91A12,12,0,0,1,66,438.91q5.35-3.84,19.87-4.05A16.91,16.91,0,0,0,86,432.6q0-5.06-2.7-6.75c-1.79-1.12-4.52-1.68-8.16-1.68a50.84,50.84,0,0,0-12.71,1.6l.7-5.68a51.55,51.55,0,0,1,14.19-1.77q7.32,0,11.31,3t4,10.3q0,1.94-.18,7c-.13,3.38-.19,5.64-.19,6.76A71.8,71.8,0,0,0,93.34,458.76Zm-7.28-8q-.21-6.25-.21-11.23a45.87,45.87,0,0,0-11.76,1.15c-4.5,1.38-6.75,4-6.75,7.86s2.64,5.6,7.9,5.6Q82,454.16,86.06,450.78Z"/><path class="cls-1" d="M111.19,418.82q-.69,12.75-.69,25.59,0,3.4.22,9t.23,7.63q0,13.28-10.12,16.12l-2.06-3.12a12.89,12.89,0,0,0,4.53-6.59q1.28-5,1.27-21.39,0-17.56-1.64-26.24ZM113,407.34a5.35,5.35,0,0,1-1.35,3.64,4.83,4.83,0,0,1-3.83,1.54,4.12,4.12,0,0,1-3.27-1.33,4.74,4.74,0,0,1-1.17-3.23,5.08,5.08,0,0,1,1.4-3.58,5,5,0,0,1,3.86-1.52,4,4,0,0,1,3.19,1.33A4.62,4.62,0,0,1,113,407.34Z"/><path class="cls-1" d="M155.87,434.61c0,1.16-.06,2.75-.16,4.78l-28.27.49a14.87,14.87,0,0,0,4.65,10.06q4.24,4.05,11.23,4.05a43.82,43.82,0,0,0,11.73-1.52l-.7,5.8q-4,1.61-11.64,1.6-10.69,0-16.31-5.84a19.74,19.74,0,0,1-5.62-14.23,24.18,24.18,0,0,1,5.12-15.45,16.64,16.64,0,0,1,13.76-6.48q7.93,0,12.08,4.69T155.87,434.61Zm-6.87.09q0-11.56-9.67-11.56-9.87,0-11.64,12Z"/><path class="cls-1" d="M191.5,447.61q0,12-15.35,12a56.58,56.58,0,0,1-12.67-1.36l1.28-6a32,32,0,0,0,11.6,2.06q9,0,9-5.1a4.61,4.61,0,0,0-2-3.93,31.62,31.62,0,0,0-6.6-3.27,33.83,33.83,0,0,1-8.48-4.44,9.59,9.59,0,0,1-3.86-7.66,10.69,10.69,0,0,1,3.53-8q3.54-3.34,10.78-3.35a44,44,0,0,1,11.36,1.19l-1.28,5.93a27.64,27.64,0,0,0-10.28-1.77q-7.91,0-7.9,4.56a4.55,4.55,0,0,0,1.77,3.73,29.62,29.62,0,0,0,6.91,3.43,34.13,34.13,0,0,1,8.23,4.28A9.78,9.78,0,0,1,191.5,447.61Z"/><path class="cls-1" d="M250.86,419.68q0,2.64-6.21,16.79-7.12,16.15-8.85,22.79Q233,470,230.54,472.91q-3.3,4-11.73,4l-.33-5.76a11.48,11.48,0,0,0,8.56-3.5,12.05,12.05,0,0,0,3.41-8.76q0-4.57-7.57-21.72t-7.57-17.53h8.52q0,1.11,5.18,15t5.19,17.07h.41q0-2.67,4.38-15.51t4.38-16.54Z"/><path class="cls-1" d="M298.91,453.09l-.5,5.34a17.7,17.7,0,0,1-6.13,1.2q-7.39,0-10.12-3.77t-2.71-13.47q0-6.3.08-16.41-2.31,0-6.79.24l.25-6c2.6.16,4.94.24,7,.24q0-2.46.41-11.72l6.46-.66q-.69,8.64-.7,12.38,4,0,11.85-.41l-.29,6.13q-7.4-.24-11.89-.24-.07,6.21-.08,14,0,8.48,1.79,11.21c1.19,1.83,3.41,2.74,6.64,2.74A21,21,0,0,0,298.91,453.09Z"/><path class="cls-1" d="M341.28,458.72l-6.38.25a16.48,16.48,0,0,1-.57-3.79h-.42a19.87,19.87,0,0,1-13.28,4.61q-7.12,0-10.35-3.43t-3.23-13.85c0-1,0-2.45.08-4.4s.09-3.28.09-4q0-6-.7-14.23l7.65-.29q-.5,7.93-.5,13.58,0,12.94,1.67,16.88t7.51,3.93a17.31,17.31,0,0,0,10.86-3.29q0-22.87-.41-30.81l7.4-.29q-.33,7.74-.33,21.39A174.62,174.62,0,0,0,341.28,458.72Z"/><path class="cls-1" d="M376.57,419.68l-1.85,6.54a16.23,16.23,0,0,0-6-1.27q-7.74,0-10,7.36,0,18.93.25,26.45h-7.28q.65-13,.65-20.24a87.88,87.88,0,0,0-1.93-18.67l7.2-1a44.73,44.73,0,0,1,.78,6.05h.33q4.44-6.56,10.37-6.55A26,26,0,0,1,376.57,419.68Z"/><path class="cls-1" d="M389,458.76h-7.45q.59-8.22.58-18.8A116.16,116.16,0,0,0,380.73,420L389,418.9q-.49,8.6-.5,21.06Q388.46,449.83,389,458.76Zm1.73-51.42a5.36,5.36,0,0,1-1.36,3.64,4.83,4.83,0,0,1-3.83,1.54,4.12,4.12,0,0,1-3.27-1.33,4.74,4.74,0,0,1-1.17-3.23,5.13,5.13,0,0,1,1.4-3.58,5,5,0,0,1,3.87-1.52,4,4,0,0,1,3.18,1.33A4.59,4.59,0,0,1,390.77,407.34Z"/><path class="cls-1" d="M426.06,447.61q0,12-15.34,12a56.51,56.51,0,0,1-12.67-1.36l1.27-6a32.08,32.08,0,0,0,11.6,2.06q9,0,9-5.1a4.61,4.61,0,0,0-2-3.93,31.5,31.5,0,0,0-6.61-3.27,33.73,33.73,0,0,1-8.47-4.44,9.61,9.61,0,0,1-3.87-7.66,10.7,10.7,0,0,1,3.54-8q3.54-3.34,10.78-3.35a43.85,43.85,0,0,1,11.35,1.19l-1.27,5.93a27.66,27.66,0,0,0-10.29-1.77q-7.89,0-7.9,4.56a4.55,4.55,0,0,0,1.77,3.73,29.84,29.84,0,0,0,6.91,3.43,33.75,33.75,0,0,1,8.23,4.28A9.75,9.75,0,0,1,426.06,447.61Z"/><path class="cls-1" d="M486.9,434.94q0-6.57-2.28-8.7t-7.51-2.12q-4.39,0-9.09,4.32-.16,5-.16,9.84,0,6.87.24,20.48h-7.48q.9-11.72.9-23.82,0-6.57-2.28-8.7c-1.52-1.41-4-2.12-7.3-2.12s-6.64,1.44-9.63,4.32q0,13.05.17,30.32H435q.78-14,.78-20.24a94.42,94.42,0,0,0-1.85-18.67l7.24-1,.74,5h.41q5.35-5.48,11.89-5.48,9.75,0,12.55,5.48h.45q6.21-5.48,12.26-5.48,6.92,0,10.45,3.05t3.54,10.74c0,.52,0,1.55-.09,3.08s-.08,2.57-.08,3.09q0,6.87.17,20.48H486Q486.91,448,486.9,434.94Z"/><path class="cls-1" d="M541.78,438q0,10.53-6,16.43a19.68,19.68,0,0,1-14.23,5.91,18.37,18.37,0,0,1-13.14-5.23q-5.49-5.22-5.49-14.72,0-10.62,6.06-16.58a19.68,19.68,0,0,1,14.26-6,18.2,18.2,0,0,1,13.12,5.29Q541.79,428.44,541.78,438Zm-7.11,1.44a20.62,20.62,0,0,0-3.23-11.42,11.06,11.06,0,0,0-18.31-.26,19.13,19.13,0,0,0-3.19,11,20.57,20.57,0,0,0,3.23,11.44,10.38,10.38,0,0,0,9.24,5,10.26,10.26,0,0,0,9.09-4.75A19.32,19.32,0,0,0,534.67,439.47Z"/></g></g></svg>